<?xml version="1.0" encoding="UTF-8"?>
<svg width="800" height="400" xmlns="http://www.w3.org/2000/svg">
    <defs>
        <!-- Gradient for sphere -->
        <linearGradient id="sphereGradient" x1="0%" y1="0%" x2="100%" y2="100%">
            <stop offset="0%" style="stop-color:#e0e0e0;stop-opacity:1" />
            <stop offset="100%" style="stop-color:#b0b0b0;stop-opacity:1" />
        </linearGradient>
        
        <!-- Animation keyframes -->
        <style type="text/css">
            @keyframes fadeIn {
                from { opacity: 0; }
                to { opacity: 1; }
            }
            @keyframes drawHilbert {
                from { stroke-dashoffset: 1000; }
                to { stroke-dashoffset: 0; }
            }
        </style>
    </defs>
    
    <!-- Background -->
    <rect width="800" height="400" fill="#ffffff"/>
    
    <!-- Main visualization -->
    <g transform="translate(50,50)">
        <!-- Base sphere -->
        <circle cx="350" cy="150" r="120" fill="url(#sphereGradient)" stroke="#2196F3" stroke-width="2"/>
        
        <!-- Level 0: Face cells -->
        <g style="animation: fadeIn 1s ease-in forwards">
            <path d="M350,150 L290,90 L410,90 Z" fill="none" stroke="#2196F3" stroke-width="2"/>
            <path d="M350,150 L290,210 L410,210 Z" fill="none" stroke="#2196F3" stroke-width="2"/>
            <path d="M350,150 L410,90 L470,150 Z" fill="none" stroke="#2196F3" stroke-width="2"/>
            <path d="M350,150 L410,210 L470,150 Z" fill="none" stroke="#2196F3" stroke-width="2"/>
        </g>
        
        <!-- Level 1: Subdivisions -->
        <g style="animation: fadeIn 1s ease-in 1s forwards" opacity="0">
            <path d="M350,150 L320,120 L380,120 Z" fill="none" stroke="#1976D2" stroke-width="1.5"/>
            <path d="M350,150 L320,180 L380,180 Z" fill="none" stroke="#1976D2" stroke-width="1.5"/>
            <path d="M350,150 L380,120 L410,150 Z" fill="none" stroke="#1976D2" stroke-width="1.5"/>
            <path d="M350,150 L380,180 L410,150 Z" fill="none" stroke="#1976D2" stroke-width="1.5"/>
        </g>
        
        <!-- Level 2: Further subdivisions -->
        <g style="animation: fadeIn 1s ease-in 2s forwards" opacity="0">
            <path d="M350,150 L335,135 L365,135 Z" fill="none" stroke="#1565C0" stroke-width="1" stroke-dasharray="3"/>
            <path d="M350,150 L335,165 L365,165 Z" fill="none" stroke="#1565C0" stroke-width="1" stroke-dasharray="3"/>
            <path d="M350,150 L365,135 L380,150 Z" fill="none" stroke="#1565C0" stroke-width="1" stroke-dasharray="3"/>
            <path d="M350,150 L365,165 L380,150 Z" fill="none" stroke="#1565C0" stroke-width="1" stroke-dasharray="3"/>
        </g>
        
        <!-- Hilbert curve -->
        <path d="M335,135 L335,165 L365,165 L365,135 L380,135 L380,165" 
              fill="none" stroke="#FFA000" stroke-width="2" 
              stroke-dasharray="1000"
              style="animation: drawHilbert 2s ease-in 3s forwards"/>
    </g>
    
    <!-- Cell ID examples -->
    <g transform="translate(550,50)" font-family="monospace" font-size="12">
        <text y="30" style="animation: fadeIn 1s ease-in forwards">
            Face 0: 000...
        </text>
        <text y="60" style="animation: fadeIn 1s ease-in 1s forwards" opacity="0">
            Level 1: 000.01...
        </text>
        <text y="90" style="animation: fadeIn 1s ease-in 2s forwards" opacity="0">
            Level 2: 000.0110...
        </text>
    </g>
    
    <!-- Legend -->
    <g transform="translate(50,350)">
        <rect x="0" y="0" width="15" height="15" fill="none" stroke="#2196F3" stroke-width="2"/>
        <text x="25" y="12" font-family="Arial" font-size="12">Level 0 (Face)</text>
        
        <rect x="150" y="0" width="15" height="15" fill="none" stroke="#1976D2" stroke-width="1.5"/>
        <text x="175" y="12" font-family="Arial" font-size="12">Level 1</text>
        
        <rect x="300" y="0" width="15" height="15" fill="none" stroke="#1565C0" stroke-width="1" stroke-dasharray="3"/>
        <text x="325" y="12" font-family="Arial" font-size="12">Level 2</text>
        
        <path d="M450,7 L480,7" stroke="#FFA000" stroke-width="2" fill="none"/>
        <text x="490" y="12" font-family="Arial" font-size="12">Hilbert Curve</text>
    </g>
</svg>